# xmcd
#
# Track frame offsets:
#	150
#	11134
#	26437
#	42760
#	51807
#	66842
#	79015
#	89075
#	102000
#	113825
#	121770
#	139437
#
# Disc length: 2107 seconds
#
# Revision: 0
# Processed by: cddbd v1.4PL0 Copyright (c) Steve Scherf et al.
# Submitted via: AudioConverter v4.0 Copyright (c) Dennis Rebentrost
#
DISCID=9b08390c
DTITLE=Ralph Stanley - My All and All
DYEAR=1997
DGENRE=Bluegrass Gospel
TTITLE0=Jesus on the Mainline
TTITLE1=He's My All and All
TTITLE2=I'll be Wearing a Crown of Glory
TTITLE3=This Old Troublesome World
TTITLE4=Loving Grace of God
TTITLE5=The Uncloudy Day
TTITLE6=I'm Not Ashamed
TTITLE7=We are Drinking from the Fountain
TTITLE8=Take me Home
TTITLE9=While Eternal Ages Roll
TTITLE10=Two Coats
TTITLE11=I Firmly Promise You
EXTD=
EXTT0=
EXTT1=
EXTT2=
EXTT3=
EXTT4=
EXTT5=
EXTT6=
EXTT7=
EXTT8=
EXTT9=
EXTT10=
EXTT11=
PLAYORDER=
